<svg width="14" height="16" viewBox="0 0 14 16" fill="none" xmlns="http://www.w3.org/2000/svg">
<path d="M2.5 2C2.22386 2 2 2.22386 2 2.5V14.5C2 14.7761 2.22386 15 2.5 15H11.5C11.7761 15 12 14.7761 12 14.5V2.5C12 2.22386 11.7761 2 11.5 2H11C10.7239 2 10.5 1.77614 10.5 1.5C10.5 1.22386 10.7239 1 11 1H11.5C12.3284 1 13 1.67157 13 2.5V14.5C13 15.3284 12.3284 16 11.5 16H2.5C1.67157 16 1 15.3284 1 14.5V2.5C1 1.67157 1.67157 1 2.5 1H3C3.27614 1 3.5 1.22386 3.5 1.5C3.5 1.77614 3.27614 2 3 2H2.5Z" fill="#ABB3C4"/>
<path d="M9 0.5C9 0.223858 8.77614 0 8.5 0H5.5C5.22386 0 5 0.223858 5 0.5C5 0.776142 4.77614 1 4.5 1C4.22386 1 4 1.22386 4 1.5V2C4 2.27614 4.22386 2.5 4.5 2.5H9.5C9.77614 2.5 10 2.27614 10 2V1.5C10 1.22386 9.77614 1 9.5 1C9.22386 1 9 0.776142 9 0.5Z" fill="#ABB3C4"/>
</svg>
