<svg width="22" height="22" viewBox="0 0 22 22" fill="none" xmlns="http://www.w3.org/2000/svg">
<path d="M1.90838 1.90838C1.50283 2.31393 1.275 2.86397 1.275 3.4375V7.5625C1.275 8.13603 1.50283 8.68607 1.90838 9.09162C2.31393 9.49717 2.86397 9.725 3.4375 9.725H7.5625C8.13603 9.725 8.68607 9.49717 9.09162 9.09162C9.49717 8.68607 9.725 8.13603 9.725 7.5625V3.4375C9.725 2.86397 9.49717 2.31393 9.09162 1.90838C8.68607 1.50283 8.13603 1.275 7.5625 1.275H3.4375C2.86397 1.275 2.31393 1.50283 1.90838 1.90838ZM3.02207 3.02207C3.13225 2.9119 3.28169 2.85 3.4375 2.85H7.5625C7.71831 2.85 7.86775 2.9119 7.97793 3.02207C8.0881 3.13225 8.15 3.28169 8.15 3.4375V7.5625C8.15 7.71831 8.0881 7.86775 7.97793 7.97793C7.86775 8.0881 7.71831 8.15 7.5625 8.15H3.4375C3.28169 8.15 3.13225 8.0881 3.02207 7.97793C2.9119 7.86775 2.85 7.71831 2.85 7.5625V3.4375C2.85 3.28169 2.9119 3.13225 3.02207 3.02207ZM12.9084 1.90838C12.5028 2.31393 12.275 2.86397 12.275 3.4375V7.5625C12.275 8.13603 12.5028 8.68607 12.9084 9.09162C13.3139 9.49717 13.864 9.725 14.4375 9.725H18.5625C19.136 9.725 19.6861 9.49717 20.0916 9.09162C20.4972 8.68607 20.725 8.13603 20.725 7.5625V3.4375C20.725 2.86397 20.4972 2.31393 20.0916 1.90838C19.6861 1.50283 19.136 1.275 18.5625 1.275H14.4375C13.864 1.275 13.3139 1.50283 12.9084 1.90838ZM14.0221 3.02207C14.1323 2.9119 14.2817 2.85 14.4375 2.85H18.5625C18.7183 2.85 18.8677 2.9119 18.9779 3.02207C19.0881 3.13225 19.15 3.28168 19.15 3.4375V7.5625C19.15 7.71832 19.0881 7.86775 18.9779 7.97793C18.8678 8.0881 18.7183 8.15 18.5625 8.15H14.4375C14.2817 8.15 14.1323 8.0881 14.0221 7.97793C13.9119 7.86775 13.85 7.71832 13.85 7.5625V3.4375C13.85 3.28169 13.9119 3.13225 14.0221 3.02207ZM1.90838 12.9084C1.50283 13.3139 1.275 13.864 1.275 14.4375V18.5625C1.275 19.136 1.50283 19.6861 1.90838 20.0916C2.31393 20.4972 2.86397 20.725 3.4375 20.725H7.5625C8.13603 20.725 8.68607 20.4972 9.09162 20.0916C9.49717 19.6861 9.725 19.136 9.725 18.5625V14.4375C9.725 13.864 9.49717 13.3139 9.09162 12.9084C8.68607 12.5028 8.13603 12.275 7.5625 12.275H3.4375C2.86397 12.275 2.31393 12.5028 1.90838 12.9084ZM3.02207 14.0221C3.13225 13.9119 3.28169 13.85 3.4375 13.85H7.5625C7.71832 13.85 7.86775 13.9119 7.97793 14.0221C8.0881 14.1323 8.15 14.2817 8.15 14.4375V18.5625C8.15 18.7183 8.0881 18.8678 7.97793 18.9779C7.86775 19.0881 7.71832 19.15 7.5625 19.15H3.4375C3.28168 19.15 3.13225 19.0881 3.02207 18.9779C2.9119 18.8677 2.85 18.7183 2.85 18.5625V14.4375C2.85 14.2817 2.9119 14.1323 3.02207 14.0221ZM12.9084 12.9084C12.5028 13.3139 12.275 13.864 12.275 14.4375V18.5625C12.275 19.136 12.5028 19.6861 12.9084 20.0916C13.3139 20.4972 13.864 20.725 14.4375 20.725H18.5625C19.136 20.725 19.6861 20.4972 20.0916 20.0916C20.4972 19.6861 20.725 19.136 20.725 18.5625V14.4375C20.725 13.864 20.4972 13.3139 20.0916 12.9084C19.6861 12.5028 19.136 12.275 18.5625 12.275H14.4375C13.864 12.275 13.3139 12.5028 12.9084 12.9084ZM14.0221 14.0221C14.1323 13.9119 14.2817 13.85 14.4375 13.85H18.5625C18.7183 13.85 18.8678 13.9119 18.9779 14.0221C19.0881 14.1323 19.15 14.2817 19.15 14.4375V18.5625C19.15 18.7183 19.0881 18.8678 18.9779 18.9779C18.8678 19.0881 18.7183 19.15 18.5625 19.15H14.4375C14.2817 19.15 14.1323 19.0881 14.0221 18.9779C13.9119 18.8678 13.85 18.7183 13.85 18.5625V14.4375C13.85 14.2817 13.9119 14.1323 14.0221 14.0221Z" fill="#ABB3C4" stroke="#ABB3C4" stroke-width="0.2"/>
</svg>
