<svg width="22" height="22" viewBox="0 0 22 22" fill="none" xmlns="http://www.w3.org/2000/svg">
<path d="M6.19025 12.375C6.73726 12.375 7.26186 12.1577 7.64865 11.7709C8.03545 11.3841 8.25275 10.8595 8.25275 10.3125C8.25275 9.76549 8.03545 9.24089 7.64865 8.85409C7.26186 8.4673 6.73726 8.25 6.19025 8.25C5.64324 8.25 5.11863 8.4673 4.73184 8.85409C4.34504 9.24089 4.12775 9.76549 4.12775 10.3125C4.12775 10.8595 4.34504 11.3841 4.73184 11.7709C5.11863 12.1577 5.64324 12.375 6.19025 12.375V12.375Z" fill="#ABB3C4"/>
<path d="M19.2527 17.875C19.2527 18.6043 18.963 19.3038 18.4473 19.8195C17.9316 20.3353 17.2321 20.625 16.5027 20.625H2.75275C2.0234 20.625 1.32393 20.3353 0.808203 19.8195C0.292478 19.3038 0.00274658 18.6043 0.00274658 17.875V6.875C0.00274622 6.14613 0.2921 5.44707 0.80723 4.93143C1.32236 4.41578 2.02113 4.12573 2.75 4.125C2.75 3.39565 3.03973 2.69618 3.55545 2.18046C4.07118 1.66473 4.77065 1.375 5.5 1.375H19.25C19.9793 1.375 20.6788 1.66473 21.1945 2.18046C21.7103 2.69618 22 3.39565 22 4.125V15.125C22 15.8539 21.7106 16.5529 21.1955 17.0686C20.6804 17.5842 19.9816 17.8743 19.2527 17.875ZM19.25 2.75H5.5C5.13532 2.75 4.78559 2.89487 4.52772 3.15273C4.26986 3.41059 4.125 3.76033 4.125 4.125H16.5027C17.2321 4.125 17.9316 4.41473 18.4473 4.93046C18.963 5.44618 19.2527 6.14565 19.2527 6.875V16.5C19.6169 16.4993 19.966 16.3541 20.2232 16.0963C20.4805 15.8385 20.625 15.4892 20.625 15.125V4.125C20.625 3.76033 20.4801 3.41059 20.2223 3.15273C19.9644 2.89487 19.6147 2.75 19.25 2.75V2.75ZM2.75275 5.5C2.38807 5.5 2.03834 5.64487 1.78047 5.90273C1.52261 6.16059 1.37775 6.51033 1.37775 6.875V17.875L5.016 14.6382C5.12838 14.5263 5.27603 14.4566 5.43391 14.4411C5.59179 14.4255 5.75019 14.4651 5.88225 14.553L9.53975 16.9909L14.641 11.8896C14.743 11.7876 14.8744 11.7202 15.0168 11.697C15.1592 11.6738 15.3053 11.696 15.4344 11.7604L17.8777 14.4375V6.875C17.8777 6.51033 17.7329 6.16059 17.475 5.90273C17.2172 5.64487 16.8674 5.5 16.5027 5.5H2.75275V5.5Z" fill="#ABB3C4"/>
</svg>
